<svg viewBox="0 0 512 512" xmlns="http://www.w3.org/2000/svg">
  <title>VillageKeep primary mark v3</title>
  <desc>v2 with the house raised so the iron keep wraps beneath it — held, not a doorway. Iron #34383F, copper #D08A45/#9E5B23, patina #3E7C66.</desc>
  <g transform="translate(256,260) scale(3.55)">
    <path d="M -62 62 L -41 -46 L -41 -62 L -19 -62 L -19 -46 L -11 -46 L -11 -62 L 11 -62 L 11 -46 L 19 -46 L 19 -62 L 41 -62 L 41 -46 L 62 62 Z" fill="#34383F"/>
    <path d="M -31 46 L -31 4 L 0 -26 L 31 4 L 31 46 Z" fill="#3E7C66"/>
    <path d="M 0 -20 L -26 6 L 0 6 Z" fill="#D08A45"/>
    <path d="M 0 -20 L 26 6 L 0 6 Z" fill="#9E5B23"/>
    <rect x="-26" y="6" width="52" height="7" fill="#3E7C66"/>
    <rect x="-26" y="13" width="26" height="28" fill="#D08A45"/>
    <rect x="0" y="13" width="26" height="28" fill="#9E5B23"/>
  </g>
</svg>
